<mxfile host="Electron" agent="Mozilla/5.0 (Windows NT 10.0; Win64; x64) AppleWebKit/537.36 (KHTML, like Gecko) draw.io/24.7.8 Chrome/128.0.6613.36 Electron/32.0.1 Safari/537.36" version="24.7.8">
  <diagram name="Page-1" id="KWKi6oKQQJgTBTdzpAts">
    <mxGraphModel dx="1434" dy="836" grid="1" gridSize="10" guides="1" tooltips="1" connect="1" arrows="1" fold="1" page="1" pageScale="1" pageWidth="1100" pageHeight="850" math="0" shadow="0">
      <root>
        <mxCell id="0" />
        <mxCell id="1" parent="0" />
        <mxCell id="iglfGg9SNeHcVvyg_pbJ-2" value="Master&lt;div&gt;SoC&lt;/div&gt;" style="rounded=0;whiteSpace=wrap;html=1;snapToPoint=1;arcSize=12;" parent="1" vertex="1">
          <mxGeometry x="280" y="80" width="120" height="230" as="geometry" />
        </mxCell>
        <mxCell id="iglfGg9SNeHcVvyg_pbJ-3" value="AD&lt;span style=&quot;font-size: 10px;&quot;&gt;&lt;sub&gt;3&lt;/sub&gt;&lt;/span&gt;" style="text;html=1;align=center;verticalAlign=middle;resizable=1;points=[];autosize=1;strokeColor=none;fillColor=none;" parent="1" vertex="1">
          <mxGeometry x="275" y="105" width="40" height="30" as="geometry" />
        </mxCell>
        <mxCell id="iglfGg9SNeHcVvyg_pbJ-4" value="LCD" style="rounded=0;whiteSpace=wrap;html=1;" parent="1" vertex="1">
          <mxGeometry x="560" y="100" width="80" height="120" as="geometry" />
        </mxCell>
        <mxCell id="iglfGg9SNeHcVvyg_pbJ-5" value="" style="endArrow=none;html=1;rounded=0;entryX=0.004;entryY=0.331;entryDx=0;entryDy=0;entryPerimeter=0;exitX=1;exitY=0.4;exitDx=0;exitDy=0;exitPerimeter=0;" parent="1" target="iglfGg9SNeHcVvyg_pbJ-4" edge="1">
          <mxGeometry width="50" height="50" relative="1" as="geometry">
            <mxPoint x="400" y="140" as="sourcePoint" />
            <mxPoint x="518.5599999999997" y="120.00000000000006" as="targetPoint" />
          </mxGeometry>
        </mxCell>
        <mxCell id="iglfGg9SNeHcVvyg_pbJ-6" value="" style="pointerEvents=1;verticalLabelPosition=bottom;shadow=0;dashed=0;align=center;html=1;verticalAlign=top;shape=mxgraph.electrical.signal_sources.protective_earth;strokeWidth=1;" parent="1" vertex="1">
          <mxGeometry x="590" y="230" width="20" height="15" as="geometry" />
        </mxCell>
        <mxCell id="iglfGg9SNeHcVvyg_pbJ-7" value="" style="pointerEvents=1;verticalLabelPosition=bottom;shadow=0;dashed=0;align=center;html=1;verticalAlign=top;shape=mxgraph.electrical.resistors.resistor_2;direction=south;strokeWidth=1;" parent="1" vertex="1">
          <mxGeometry x="435" y="52" width="10" height="60" as="geometry" />
        </mxCell>
        <mxCell id="iglfGg9SNeHcVvyg_pbJ-8" value="V&lt;sub&gt;dd&lt;/sub&gt;" style="verticalLabelPosition=top;verticalAlign=bottom;shape=mxgraph.electrical.signal_sources.vdd;shadow=0;dashed=0;align=center;strokeWidth=1;fontSize=24;html=1;flipV=1;noLabel=1;" parent="1" vertex="1">
          <mxGeometry x="592" y="88" width="16" height="12" as="geometry" />
        </mxCell>
        <mxCell id="iglfGg9SNeHcVvyg_pbJ-9" value="V&lt;sub&gt;dd&lt;/sub&gt;" style="text;html=1;align=center;verticalAlign=middle;resizable=1;points=[];autosize=1;strokeColor=none;fillColor=none;strokeWidth=1;" parent="1" vertex="1">
          <mxGeometry x="580" y="69" width="40" height="20" as="geometry" />
        </mxCell>
        <mxCell id="iglfGg9SNeHcVvyg_pbJ-10" value="" style="endArrow=none;html=1;rounded=0;entryX=1;entryY=0.5;entryDx=0;entryDy=0;entryPerimeter=0;exitX=0;exitY=0.57;exitDx=0;exitDy=0;exitPerimeter=0;strokeWidth=1;" parent="1" target="iglfGg9SNeHcVvyg_pbJ-7" edge="1">
          <mxGeometry width="50" height="50" relative="1" as="geometry">
            <mxPoint x="440.03" y="109.00000000000023" as="sourcePoint" />
            <mxPoint x="460" y="2.5" as="targetPoint" />
          </mxGeometry>
        </mxCell>
        <mxCell id="iglfGg9SNeHcVvyg_pbJ-11" value="V&lt;sub&gt;dd&lt;/sub&gt;" style="verticalLabelPosition=top;verticalAlign=bottom;shape=mxgraph.electrical.signal_sources.vdd;shadow=0;dashed=0;align=center;strokeWidth=1;fontSize=24;html=1;flipV=1;noLabel=1;" parent="1" vertex="1">
          <mxGeometry x="332" y="68" width="16" height="12" as="geometry" />
        </mxCell>
        <mxCell id="iglfGg9SNeHcVvyg_pbJ-12" value="V&lt;sub&gt;dd&lt;/sub&gt;" style="text;html=1;align=center;verticalAlign=middle;resizable=1;points=[];autosize=1;strokeColor=none;fillColor=none;strokeWidth=1;" parent="1" vertex="1">
          <mxGeometry x="320" y="48" width="40" height="20" as="geometry" />
        </mxCell>
        <mxCell id="iglfGg9SNeHcVvyg_pbJ-13" value="" style="pointerEvents=1;verticalLabelPosition=bottom;shadow=0;dashed=0;align=center;html=1;verticalAlign=top;shape=mxgraph.electrical.signal_sources.protective_earth;strokeWidth=1;" parent="1" vertex="1">
          <mxGeometry x="330" y="320" width="20" height="15" as="geometry" />
        </mxCell>
        <mxCell id="iglfGg9SNeHcVvyg_pbJ-14" value="V&lt;sub&gt;dd&lt;/sub&gt;" style="verticalLabelPosition=top;verticalAlign=bottom;shape=mxgraph.electrical.signal_sources.vdd;shadow=0;dashed=0;align=center;strokeWidth=1;fontSize=24;html=1;flipV=1;noLabel=1;" parent="1" vertex="1">
          <mxGeometry x="432" y="50" width="16" height="12" as="geometry" />
        </mxCell>
        <mxCell id="iglfGg9SNeHcVvyg_pbJ-15" value="V&lt;sub&gt;dd&lt;/sub&gt;" style="text;html=1;align=center;verticalAlign=middle;resizable=1;points=[];autosize=1;strokeColor=none;fillColor=none;strokeWidth=1;" parent="1" vertex="1">
          <mxGeometry x="420" y="30" width="40" height="20" as="geometry" />
        </mxCell>
        <mxCell id="iglfGg9SNeHcVvyg_pbJ-16" value="" style="endArrow=none;html=1;rounded=0;exitX=0.5;exitY=1;exitDx=0;exitDy=0;entryX=0.5;entryY=0;entryDx=0;entryDy=0;entryPerimeter=0;" parent="1" source="iglfGg9SNeHcVvyg_pbJ-2" target="iglfGg9SNeHcVvyg_pbJ-13" edge="1">
          <mxGeometry width="50" height="50" relative="1" as="geometry">
            <mxPoint x="450" y="260" as="sourcePoint" />
            <mxPoint x="500" y="210" as="targetPoint" />
          </mxGeometry>
        </mxCell>
        <mxCell id="iglfGg9SNeHcVvyg_pbJ-17" value="" style="endArrow=none;html=1;rounded=0;entryX=0.5;entryY=1;entryDx=0;entryDy=0;exitX=0.5;exitY=0;exitDx=0;exitDy=0;exitPerimeter=0;" parent="1" source="iglfGg9SNeHcVvyg_pbJ-6" target="iglfGg9SNeHcVvyg_pbJ-4" edge="1">
          <mxGeometry width="50" height="50" relative="1" as="geometry">
            <mxPoint x="450" y="240" as="sourcePoint" />
            <mxPoint x="500" y="190" as="targetPoint" />
          </mxGeometry>
        </mxCell>
        <mxCell id="iglfGg9SNeHcVvyg_pbJ-18" value="SDA&lt;sub&gt;1&lt;/sub&gt;" style="text;html=1;align=center;verticalAlign=middle;resizable=1;points=[];autosize=1;strokeColor=none;fillColor=none;" parent="1" vertex="1">
          <mxGeometry x="355" y="125" width="50" height="30" as="geometry" />
        </mxCell>
        <mxCell id="iglfGg9SNeHcVvyg_pbJ-19" value="SDA" style="text;html=1;align=center;verticalAlign=middle;resizable=1;points=[];autosize=1;strokeColor=none;fillColor=none;" parent="1" vertex="1">
          <mxGeometry x="560" y="130" width="30" height="20" as="geometry" />
        </mxCell>
        <mxCell id="iglfGg9SNeHcVvyg_pbJ-21" value="SCL" style="text;html=1;align=center;verticalAlign=middle;resizable=1;points=[];autosize=1;strokeColor=none;fillColor=none;" parent="1" vertex="1">
          <mxGeometry x="550" y="170" width="50" height="20" as="geometry" />
        </mxCell>
        <mxCell id="iglfGg9SNeHcVvyg_pbJ-22" value="" style="endArrow=none;html=1;rounded=0;exitX=1;exitY=0.6;exitDx=0;exitDy=0;exitPerimeter=0;" parent="1" edge="1">
          <mxGeometry width="50" height="50" relative="1" as="geometry">
            <mxPoint x="400" y="180" as="sourcePoint" />
            <mxPoint x="560" y="180" as="targetPoint" />
          </mxGeometry>
        </mxCell>
        <mxCell id="iglfGg9SNeHcVvyg_pbJ-23" value="" style="pointerEvents=1;verticalLabelPosition=bottom;shadow=0;dashed=0;align=center;html=1;verticalAlign=top;shape=mxgraph.electrical.resistors.resistor_2;direction=south;strokeWidth=1;" parent="1" vertex="1">
          <mxGeometry x="475" y="81" width="10" height="60" as="geometry" />
        </mxCell>
        <mxCell id="iglfGg9SNeHcVvyg_pbJ-24" value="V&lt;sub&gt;dd&lt;/sub&gt;" style="verticalLabelPosition=top;verticalAlign=bottom;shape=mxgraph.electrical.signal_sources.vdd;shadow=0;dashed=0;align=center;strokeWidth=1;fontSize=24;html=1;flipV=1;noLabel=1;" parent="1" vertex="1">
          <mxGeometry x="472" y="79.5" width="16" height="12" as="geometry" />
        </mxCell>
        <mxCell id="iglfGg9SNeHcVvyg_pbJ-25" value="V&lt;sub&gt;dd&lt;/sub&gt;" style="text;html=1;align=center;verticalAlign=middle;resizable=1;points=[];autosize=1;strokeColor=none;fillColor=none;strokeWidth=1;" parent="1" vertex="1">
          <mxGeometry x="460" y="60" width="40" height="20" as="geometry" />
        </mxCell>
        <mxCell id="iglfGg9SNeHcVvyg_pbJ-26" value="" style="endArrow=none;html=1;rounded=0;" parent="1" edge="1">
          <mxGeometry width="50" height="50" relative="1" as="geometry">
            <mxPoint x="440" y="140" as="sourcePoint" />
            <mxPoint x="440" y="110" as="targetPoint" />
          </mxGeometry>
        </mxCell>
        <mxCell id="iglfGg9SNeHcVvyg_pbJ-27" value="" style="endArrow=none;html=1;rounded=0;entryX=1;entryY=0.5;entryDx=0;entryDy=0;entryPerimeter=0;" parent="1" target="iglfGg9SNeHcVvyg_pbJ-23" edge="1">
          <mxGeometry width="50" height="50" relative="1" as="geometry">
            <mxPoint x="480.1" y="180" as="sourcePoint" />
            <mxPoint x="479.90000000000003" y="122.5" as="targetPoint" />
          </mxGeometry>
        </mxCell>
        <mxCell id="iglfGg9SNeHcVvyg_pbJ-28" value="V&lt;sub&gt;dd&lt;/sub&gt;" style="verticalLabelPosition=top;verticalAlign=bottom;shape=mxgraph.electrical.signal_sources.vdd;shadow=0;dashed=0;align=center;strokeWidth=1;fontSize=24;html=1;flipV=1;noLabel=1;" parent="1" vertex="1">
          <mxGeometry x="212" y="80" width="16" height="12" as="geometry" />
        </mxCell>
        <mxCell id="iglfGg9SNeHcVvyg_pbJ-29" value="V&lt;sub&gt;dd&lt;/sub&gt;" style="text;html=1;align=center;verticalAlign=middle;resizable=1;points=[];autosize=1;strokeColor=none;fillColor=none;strokeWidth=1;" parent="1" vertex="1">
          <mxGeometry x="200" y="60" width="40" height="20" as="geometry" />
        </mxCell>
        <mxCell id="iglfGg9SNeHcVvyg_pbJ-30" value="" style="pointerEvents=1;verticalLabelPosition=bottom;shadow=0;dashed=0;align=center;html=1;verticalAlign=top;shape=mxgraph.electrical.resistors.potentiometer_2;direction=north;" parent="1" vertex="1">
          <mxGeometry x="215" y="90" width="20" height="60" as="geometry" />
        </mxCell>
        <mxCell id="iglfGg9SNeHcVvyg_pbJ-31" value="" style="pointerEvents=1;verticalLabelPosition=bottom;shadow=0;dashed=0;align=center;html=1;verticalAlign=top;shape=mxgraph.electrical.signal_sources.protective_earth;strokeWidth=1;" parent="1" vertex="1">
          <mxGeometry x="210" y="152.5" width="20" height="15" as="geometry" />
        </mxCell>
        <mxCell id="iglfGg9SNeHcVvyg_pbJ-32" value="" style="endArrow=none;html=1;rounded=0;entryX=0;entryY=0.25;entryDx=0;entryDy=0;entryPerimeter=0;exitX=0.5;exitY=0;exitDx=0;exitDy=0;exitPerimeter=0;" parent="1" source="iglfGg9SNeHcVvyg_pbJ-31" target="iglfGg9SNeHcVvyg_pbJ-30" edge="1">
          <mxGeometry width="50" height="50" relative="1" as="geometry">
            <mxPoint x="330" y="200" as="sourcePoint" />
            <mxPoint x="380" y="150" as="targetPoint" />
          </mxGeometry>
        </mxCell>
        <mxCell id="iglfGg9SNeHcVvyg_pbJ-33" value="" style="endArrow=none;html=1;rounded=0;exitX=0.5;exitY=1;exitDx=0;exitDy=0;exitPerimeter=0;" parent="1" source="iglfGg9SNeHcVvyg_pbJ-30" edge="1">
          <mxGeometry width="50" height="50" relative="1" as="geometry">
            <mxPoint x="220" y="111.5" as="sourcePoint" />
            <mxPoint x="280" y="120" as="targetPoint" />
          </mxGeometry>
        </mxCell>
        <mxCell id="iglfGg9SNeHcVvyg_pbJ-44" value="" style="pointerEvents=1;verticalLabelPosition=bottom;shadow=0;dashed=0;align=center;html=1;verticalAlign=top;shape=mxgraph.electrical.electro-mechanical.loudspeaker;" parent="1" vertex="1">
          <mxGeometry x="479.5" y="230" width="40.25" height="50" as="geometry" />
        </mxCell>
        <mxCell id="iglfGg9SNeHcVvyg_pbJ-45" value="" style="verticalLabelPosition=bottom;shadow=0;dashed=0;align=center;html=1;verticalAlign=top;shape=mxgraph.electrical.transistors.npn_transistor_5;fontFamily=Helvetica;fontSize=12;fontColor=default;autosize=1;resizable=1;fillColor=none;gradientColor=none;direction=east;" parent="1" vertex="1">
          <mxGeometry x="449" y="260" width="36" height="40" as="geometry" />
        </mxCell>
        <mxCell id="iglfGg9SNeHcVvyg_pbJ-47" value="" style="pointerEvents=1;verticalLabelPosition=bottom;shadow=0;dashed=0;align=center;html=1;verticalAlign=top;shape=mxgraph.electrical.resistors.resistor_2;fontFamily=Helvetica;fontSize=12;fontColor=default;autosize=1;resizable=1;fillColor=none;gradientColor=none;direction=west;" parent="1" vertex="1">
          <mxGeometry x="400" y="275" width="60" height="10" as="geometry" />
        </mxCell>
        <mxCell id="iglfGg9SNeHcVvyg_pbJ-50" value="" style="endArrow=none;html=1;rounded=0;" parent="1" edge="1">
          <mxGeometry width="50" height="50" relative="1" as="geometry">
            <mxPoint x="479.95" y="250" as="sourcePoint" />
            <mxPoint x="479.95" y="230" as="targetPoint" />
          </mxGeometry>
        </mxCell>
        <mxCell id="iglfGg9SNeHcVvyg_pbJ-51" value="" style="pointerEvents=1;verticalLabelPosition=bottom;shadow=0;dashed=0;align=center;html=1;verticalAlign=top;shape=mxgraph.electrical.signal_sources.protective_earth;strokeWidth=1;" parent="1" vertex="1">
          <mxGeometry x="470" y="300" width="20" height="15" as="geometry" />
        </mxCell>
        <mxCell id="iglfGg9SNeHcVvyg_pbJ-52" value="V&lt;sub&gt;dd&lt;/sub&gt;" style="verticalLabelPosition=top;verticalAlign=bottom;shape=mxgraph.electrical.signal_sources.vdd;shadow=0;dashed=0;align=center;strokeWidth=1;fontSize=24;html=1;flipV=1;noLabel=1;" parent="1" vertex="1">
          <mxGeometry x="472" y="218" width="16" height="12" as="geometry" />
        </mxCell>
        <mxCell id="iglfGg9SNeHcVvyg_pbJ-53" value="V&lt;span style=&quot;font-size: 10px;&quot;&gt;&lt;sub&gt;s&lt;/sub&gt;&lt;/span&gt;" style="text;html=1;align=center;verticalAlign=middle;resizable=1;points=[];autosize=1;strokeColor=none;fillColor=none;strokeWidth=1;" parent="1" vertex="1">
          <mxGeometry x="460" y="193" width="40" height="30" as="geometry" />
        </mxCell>
        <mxCell id="iglfGg9SNeHcVvyg_pbJ-54" value="P&lt;sub&gt;3,0&lt;/sub&gt;" style="text;html=1;align=center;verticalAlign=middle;resizable=1;points=[];autosize=1;strokeColor=none;fillColor=none;" parent="1" vertex="1">
          <mxGeometry x="270.5" y="225" width="50" height="30" as="geometry" />
        </mxCell>
        <mxCell id="iglfGg9SNeHcVvyg_pbJ-55" value="SCL&lt;sub&gt;1&lt;/sub&gt;" style="text;html=1;align=center;verticalAlign=middle;resizable=1;points=[];autosize=1;strokeColor=none;fillColor=none;" parent="1" vertex="1">
          <mxGeometry x="355" y="165" width="50" height="30" as="geometry" />
        </mxCell>
        <mxCell id="dgVeTh8sm7eIXouB8sR8-1" value="" style="endArrow=none;html=1;rounded=0;entryX=0;entryY=0.696;entryDx=0;entryDy=0;entryPerimeter=0;" parent="1" target="iglfGg9SNeHcVvyg_pbJ-2" edge="1">
          <mxGeometry width="50" height="50" relative="1" as="geometry">
            <mxPoint x="240" y="240" as="sourcePoint" />
            <mxPoint x="260" y="240" as="targetPoint" />
          </mxGeometry>
        </mxCell>
        <mxCell id="dgVeTh8sm7eIXouB8sR8-2" value="P&lt;sub&gt;3,1&lt;/sub&gt;" style="text;html=1;align=center;verticalAlign=middle;resizable=1;points=[];autosize=1;strokeColor=none;fillColor=none;" parent="1" vertex="1">
          <mxGeometry x="355" y="265" width="50" height="30" as="geometry" />
        </mxCell>
        <mxCell id="dgVeTh8sm7eIXouB8sR8-3" value="R" style="text;html=1;align=center;verticalAlign=middle;resizable=0;points=[];autosize=1;strokeColor=none;fillColor=none;" parent="1" vertex="1">
          <mxGeometry x="212" y="225" width="30" height="30" as="geometry" />
        </mxCell>
      </root>
    </mxGraphModel>
  </diagram>
</mxfile>
